<svg width="19" height="20" viewBox="0 0 19 20" fill="none" xmlns="http://www.w3.org/2000/svg">
<path d="M17.4517 2H15.2017V1.25C15.2017 1.05109 15.1226 0.860322 14.982 0.71967C14.8413 0.579018 14.6506 0.5 14.4517 0.5C14.2527 0.5 14.062 0.579018 13.9213 0.71967C13.7807 0.860322 13.7017 1.05109 13.7017 1.25V2H6.20166V1.25C6.20166 1.05109 6.12264 0.860322 5.98199 0.71967C5.84134 0.579018 5.65057 0.5 5.45166 0.5C5.25275 0.5 5.06198 0.579018 4.92133 0.71967C4.78068 0.860322 4.70166 1.05109 4.70166 1.25V2H2.45166C2.05384 2 1.6723 2.15804 1.391 2.43934C1.1097 2.72064 0.95166 3.10218 0.95166 3.5V18.5C0.95166 18.8978 1.1097 19.2794 1.391 19.5607C1.6723 19.842 2.05384 20 2.45166 20H17.4517C17.8495 20 18.231 19.842 18.5123 19.5607C18.7936 19.2794 18.9517 18.8978 18.9517 18.5V3.5C18.9517 3.10218 18.7936 2.72064 18.5123 2.43934C18.231 2.15804 17.8495 2 17.4517 2ZM4.70166 3.5V4.25C4.70166 4.44891 4.78068 4.63968 4.92133 4.78033C5.06198 4.92098 5.25275 5 5.45166 5C5.65057 5 5.84134 4.92098 5.98199 4.78033C6.12264 4.63968 6.20166 4.44891 6.20166 4.25V3.5H13.7017V4.25C13.7017 4.44891 13.7807 4.63968 13.9213 4.78033C14.062 4.92098 14.2527 5 14.4517 5C14.6506 5 14.8413 4.92098 14.982 4.78033C15.1226 4.63968 15.2017 4.44891 15.2017 4.25V3.5H17.4517V6.5H2.45166V3.5H4.70166ZM17.4517 18.5H2.45166V8H17.4517V18.5ZM8.45166 10.25V16.25C8.45166 16.4489 8.37264 16.6397 8.23199 16.7803C8.09134 16.921 7.90057 17 7.70166 17C7.50275 17 7.31198 16.921 7.17133 16.7803C7.03068 16.6397 6.95166 16.4489 6.95166 16.25V11.4631L6.53729 11.6713C6.35926 11.7603 6.15316 11.7749 5.96434 11.712C5.77551 11.649 5.61942 11.5137 5.53041 11.3356C5.4414 11.1576 5.42675 10.9515 5.48969 10.7627C5.55263 10.5739 5.68801 10.4178 5.86603 10.3287L7.36603 9.57875C7.48042 9.52151 7.60755 9.49448 7.73533 9.50022C7.86311 9.50596 7.98729 9.54429 8.09609 9.61155C8.20488 9.67882 8.29466 9.77279 8.35689 9.88454C8.41913 9.99629 8.45175 10.1221 8.45166 10.25ZM13.9979 13.1047L12.2017 15.5H13.7017C13.9006 15.5 14.0913 15.579 14.232 15.7197C14.3726 15.8603 14.4517 16.0511 14.4517 16.25C14.4517 16.4489 14.3726 16.6397 14.232 16.7803C14.0913 16.921 13.9006 17 13.7017 17H10.7017C10.5624 17 10.4258 16.9612 10.3074 16.888C10.1889 16.8148 10.0931 16.71 10.0308 16.5854C9.96855 16.4608 9.94218 16.3214 9.95469 16.1826C9.9672 16.0439 10.0181 15.9114 10.1017 15.8L12.7998 12.2028C12.8612 12.1211 12.9052 12.0277 12.9292 11.9284C12.9532 11.8291 12.9566 11.7259 12.9393 11.6252C12.9219 11.5245 12.8842 11.4284 12.8284 11.3428C12.7726 11.2572 12.6999 11.1839 12.6147 11.1274C12.5296 11.0709 12.4338 11.0324 12.3332 11.0143C12.2327 10.9961 12.1295 10.9987 12.0299 11.0219C11.9304 11.0451 11.8367 11.0884 11.7545 11.1491C11.6723 11.2098 11.6034 11.2867 11.552 11.375C11.5042 11.463 11.4392 11.5406 11.361 11.6031C11.2827 11.6656 11.1928 11.7118 11.0964 11.739C11 11.7661 10.8991 11.7737 10.7997 11.7613C10.7004 11.7489 10.6045 11.7166 10.5177 11.6665C10.431 11.6165 10.3552 11.5495 10.2948 11.4696C10.2343 11.3898 10.1905 11.2986 10.1659 11.2015C10.1413 11.1044 10.1363 11.0034 10.1514 10.9044C10.1664 10.8054 10.2012 10.7104 10.2535 10.625C10.5013 10.1963 10.8835 9.86124 11.341 9.67184C11.7986 9.48245 12.3058 9.44926 12.7841 9.57743C13.2623 9.7056 13.685 9.98797 13.9865 10.3808C14.288 10.7736 14.4515 11.2548 14.4517 11.75C14.4533 12.2391 14.2938 12.7152 13.9979 13.1047Z" fill="white" fill-opacity="0.7"/>
</svg>
