<svg width="24" height="24" viewBox="0 0 24 24" fill="none" xmlns="http://www.w3.org/2000/svg">
<path d="M10.8404 4.84492V0.599976H12.9628V4.84492H10.8404ZM17.8976 7.76331L16.4384 6.30411L19.4098 3.25306L20.8956 4.76532L17.8976 7.76331ZM19.3303 13.3348V11.2123H23.5752V13.3348H19.3303ZM10.8404 23.9471V19.7022H12.9628V23.9471H10.8404ZM5.90563 7.71025L2.88111 4.76532L4.39337 3.27959L7.39136 6.27758L5.90563 7.71025ZM19.3833 21.2941L16.4384 18.243L17.8711 16.8103L20.8956 19.7287L19.3833 21.2941ZM0.228027 13.3348V11.2123H4.47297V13.3348H0.228027ZM4.39337 21.2941L2.90765 19.7818L5.8791 16.8103L6.6485 17.5267L7.41789 18.2695L4.39337 21.2941ZM11.9016 18.641C10.1329 18.641 8.62947 18.0219 7.39136 16.7838C6.15326 15.5457 5.5342 14.0423 5.5342 12.2736C5.5342 10.5048 6.15326 9.00142 7.39136 7.76331C8.62947 6.5252 10.1329 5.90615 11.9016 5.90615C13.6703 5.90615 15.1738 6.5252 16.4119 7.76331C17.65 9.00142 18.269 10.5048 18.269 12.2736C18.269 14.0423 17.65 15.5457 16.4119 16.7838C15.1738 18.0219 13.6703 18.641 11.9016 18.641Z" fill="#FFD25E"/>
</svg>
